REM DIRINDEX 1\2\6,1\2\7,1\2\8,1\3\9,1\3\10,1\3\11,1\4\12,1\4\13,1\4\14,1\5\15,1\5\16,1\5\17,1\5\18
REM DIRNAME folder01,folder02,folder03,folder04,folder05,folder06,folder07,folder08,folder09,folder10,folder11,folder12,folder13,folder14,folder15,folder16,folder17,folder18
TITLE ""
FILE "2Q_j_1485-1498.mp3" MP3
  TRACK 01 AUDIO
    TITLE "6:cjc019_0918"
    INDEX 01 00:00:00
  TRACK 02 AUDIO
    TITLE "0:"
    INDEX 01 00:01:15
  TRACK 03 AUDIO
    TITLE "7:cjc019_0919"
    INDEX 01 00:01:73
  TRACK 04 AUDIO
    TITLE "0:"
    INDEX 01 00:03:04
  TRACK 05 AUDIO
    TITLE "8:cjc019_0920"
    INDEX 01 00:03:63
  TRACK 06 AUDIO
    TITLE "0:"
    INDEX 01 00:07:47
  TRACK 07 AUDIO
    TITLE "6:cjc019_0921"
    INDEX 01 00:08:30
  TRACK 08 AUDIO
    TITLE "0:"
    INDEX 01 00:09:73
  TRACK 09 AUDIO
    TITLE "7:cjc019_0922"
    INDEX 01 00:10:51
  TRACK 10 AUDIO
    TITLE "0:"
    INDEX 01 00:12:46
  TRACK 11 AUDIO
    TITLE "8:cjc019_0923"
    INDEX 01 00:13:30
  TRACK 12 AUDIO
    TITLE "0:"
    INDEX 01 00:17:35
  TRACK 13 AUDIO
    TITLE "6:cjc019_0924"
    INDEX 01 00:18:13
  TRACK 14 AUDIO
    TITLE "0:"
    INDEX 01 00:19:40
  TRACK 15 AUDIO
    TITLE "7:cjc019_0925"
    INDEX 01 00:20:28
  TRACK 16 AUDIO
    TITLE "0:"
    INDEX 01 00:23:51
  TRACK 17 AUDIO
    TITLE "8:cjc019_0926"
    INDEX 01 00:24:24
  TRACK 18 AUDIO
    TITLE "0:"
    INDEX 01 00:28:04
  TRACK 19 AUDIO
    TITLE "6:cjc019_0927"
    INDEX 01 00:28:60
  TRACK 20 AUDIO
    TITLE "0:"
    INDEX 01 00:30:65
  TRACK 21 AUDIO
    TITLE "7:cjc019_0928"
    INDEX 01 00:31:43
  TRACK 22 AUDIO
    TITLE "0:"
    INDEX 01 00:33:73
  TRACK 23 AUDIO
    TITLE "8:cjc019_0929"
    INDEX 01 00:34:53
  TRACK 24 AUDIO
    TITLE "0:"
    INDEX 01 00:37:57
  TRACK 25 AUDIO
    TITLE "6:cjc019_0930"
    INDEX 01 00:38:33
  TRACK 26 AUDIO
    TITLE "0:"
    INDEX 01 00:40:09
  TRACK 27 AUDIO
    TITLE "7:cjc019_0931"
    INDEX 01 00:40:68
  TRACK 28 AUDIO
    TITLE "0:"
    INDEX 01 00:42:33
  TRACK 29 AUDIO
    TITLE "8:cjc019_0932"
    INDEX 01 00:43:11
  TRACK 30 AUDIO
    TITLE "0:"
    INDEX 01 00:45:57
  TRACK 31 AUDIO
    TITLE "6:cjc019_0933"
    INDEX 01 00:46:43
  TRACK 32 AUDIO
    TITLE "0:"
    INDEX 01 00:47:72
  TRACK 33 AUDIO
    TITLE "7:cjc019_0934"
    INDEX 01 00:48:59
  TRACK 34 AUDIO
    TITLE "0:"
    INDEX 01 00:52:41
  TRACK 35 AUDIO
    TITLE "8:cjc019_0935"
    INDEX 01 00:53:17
  TRACK 36 AUDIO
    TITLE "0:"
    INDEX 01 00:55:36
  TRACK 37 AUDIO
    TITLE "6:cjc019_0936"
    INDEX 01 00:56:20
  TRACK 38 AUDIO
    TITLE "0:"
    INDEX 01 00:57:70
  TRACK 39 AUDIO
    TITLE "7:cjc019_0937"
    INDEX 01 00:58:52
  TRACK 40 AUDIO
    TITLE "0:"
    INDEX 01 01:02:42
  TRACK 41 AUDIO
    TITLE "8:cjc019_0938"
    INDEX 01 01:03:26
  TRACK 42 AUDIO
    TITLE "0:"
    INDEX 01 01:07:68
  TRACK 43 AUDIO
    TITLE "6:cjc019_0939"
    INDEX 01 01:08:44
  TRACK 44 AUDIO
    TITLE "0:"
    INDEX 01 01:10:39
  TRACK 45 AUDIO
    TITLE "7:cjc019_0940"
    INDEX 01 01:11:27
  TRACK 46 AUDIO
    TITLE "0:"
    INDEX 01 01:13:22
  TRACK 47 AUDIO
    TITLE "8:cjc019_0941"
    INDEX 01 01:13:73
  TRACK 48 AUDIO
    TITLE "0:"
    INDEX 01 01:18:23
  TRACK 49 AUDIO
    TITLE "6:cjc019_0942"
    INDEX 01 01:19:07
  TRACK 50 AUDIO
    TITLE "0:"
    INDEX 01 01:21:08
  TRACK 51 AUDIO
    TITLE "7:cjc019_0943"
    INDEX 01 01:21:72
  TRACK 52 AUDIO
    TITLE "0:"
    INDEX 01 01:24:43
  TRACK 53 AUDIO
    TITLE "8:cjc019_0944"
    INDEX 01 01:25:23
  TRACK 54 AUDIO
    TITLE "0:"
    INDEX 01 01:28:43
  TRACK 55 AUDIO
    TITLE "6:cjc019_0945"
    INDEX 01 01:29:27
  TRACK 56 AUDIO
    TITLE "0:"
    INDEX 01 01:31:22
  TRACK 57 AUDIO
    TITLE "7:cjc019_0946"
    INDEX 01 01:32:08
  TRACK 58 AUDIO
    TITLE "0:"
    INDEX 01 01:34:22
  TRACK 59 AUDIO
    TITLE "8:cjc019_0947"
    INDEX 01 01:35:02
  TRACK 60 AUDIO
    TITLE "0:"
    INDEX 01 01:38:18
  TRACK 61 AUDIO
    TITLE "6:cjc019_0948"
    INDEX 01 01:39:00
  TRACK 62 AUDIO
    TITLE "0:"
    INDEX 01 01:40:68
  TRACK 63 AUDIO
    TITLE "7:cjc019_0949"
    INDEX 01 01:41:48
  TRACK 64 AUDIO
    TITLE "0:"
    INDEX 01 01:45:22
  TRACK 65 AUDIO
    TITLE "8:cjc019_0950"
    INDEX 01 01:46:04
  TRACK 66 AUDIO
    TITLE "0:"
    INDEX 01 01:49:33
  TRACK 67 AUDIO
    TITLE "6:cjc019_0951"
    INDEX 01 01:50:15
  TRACK 68 AUDIO
    TITLE "0:"
    INDEX 01 01:52:30
  TRACK 69 AUDIO
    TITLE "7:cjc019_0952"
    INDEX 01 01:53:08
  TRACK 70 AUDIO
    TITLE "0:"
    INDEX 01 01:55:16
  TRACK 71 AUDIO
    TITLE "8:cjc019_0953"
    INDEX 01 01:55:69
  TRACK 72 AUDIO
    TITLE "0:"
    INDEX 01 02:00:45
  TRACK 73 AUDIO
    TITLE "6:cjc019_0954"
    INDEX 01 02:01:35
  TRACK 74 AUDIO
    TITLE "0:"
    INDEX 01 02:03:06
  TRACK 75 AUDIO
    TITLE "7:cjc019_0955"
    INDEX 01 02:03:57
  TRACK 76 AUDIO
    TITLE "0:"
    INDEX 01 02:06:03
  TRACK 77 AUDIO
    TITLE "8:cjc019_0956"
    INDEX 01 02:06:54
  TRACK 78 AUDIO
    TITLE "0:"
    INDEX 01 02:11:49
  TRACK 79 AUDIO
    TITLE "6:cjc019_0957"
    INDEX 01 02:12:27
  TRACK 80 AUDIO
    TITLE "0:"
    INDEX 01 02:13:73
  TRACK 81 AUDIO
    TITLE "7:cjc019_0958"
    INDEX 01 02:14:51
  TRACK 82 AUDIO
    TITLE "0:"
    INDEX 01 02:17:02
  TRACK 83 AUDIO
    TITLE "8:cjc019_0959"
    INDEX 01 02:17:53
  TRACK 84 AUDIO
    TITLE "0:"
    INDEX 01 02:20:58
